<?xml version="1.0" encoding="utf-8"?>
<!-- Generator: Adobe Illustrator 27.4.1, SVG Export Plug-In . SVG Version: 6.00 Build 0)  -->
<svg version="1.1" id="Layer_1" xmlns="http://www.w3.org/2000/svg" xmlns:xlink="http://www.w3.org/1999/xlink" x="0px" y="0px"
	 viewBox="0 0 24 24" style="enable-background:new 0 0 24 24;" xml:space="preserve">
<style type="text/css">
	.st0{fill:#D8ACB5;stroke:#000000;stroke-miterlimit:10;}
</style>
<path class="st0" d="M11,19.2l-2.9-6.8C8,12.3,8,12.1,8,12V4c0-1.1,0.9-2,2-2h6c1.5,0,3.1,1.1,3.7,2.4l2.2,5.2C22,9.7,22,9.9,22,10
	v2c0,1.7-1.3,3-3,3h-4v4c0,1.7-1.3,3-3,3c-0.6,0-1-0.4-1-1V19.2z"/>
<path class="st0" d="M5,13H3c-0.6,0-1-0.4-1-1V3c0-0.6,0.4-1,1-1h2c0.6,0,1,0.4,1,1v9C6,12.6,5.6,13,5,13z"/>
</svg>
