<?xml version="1.0" encoding="utf-8"?>
<!-- Generator: Adobe Illustrator 27.4.1, SVG Export Plug-In . SVG Version: 6.00 Build 0)  -->
<svg version="1.1" id="Layer_1" xmlns="http://www.w3.org/2000/svg" xmlns:xlink="http://www.w3.org/1999/xlink" x="0px" y="0px"
	 viewBox="0 0 24 24" style="enable-background:new 0 0 24 24;" xml:space="preserve">
<style type="text/css">
	.st0{fill:#B9DBAE;stroke:#000000;stroke-miterlimit:10;}
</style>
<path class="st0" d="M13,4.8l2.9,6.8C16,11.7,16,11.9,16,12v8c0,1.1-0.9,2-2,2H8c-1.6-0.1-3-1-3.7-2.5l-2.2-5.1C2,14.3,2,14.1,2,14
	v-2c0-1.7,1.3-3,3-3h4V5c0-1.7,1.3-3,3-3c0.6,0,1,0.4,1,1V4.8z"/>
<path class="st0" d="M19,11h2c0.6,0,1,0.4,1,1v9c0,0.6-0.4,1-1,1h-2c-0.6,0-1-0.4-1-1v-9C18,11.4,18.4,11,19,11z"/>
</svg>
