<?xml version="1.0" encoding="utf-8"?>
<!-- Generator: Adobe Illustrator 27.4.1, SVG Export Plug-In . SVG Version: 6.00 Build 0)  -->
<svg version="1.1" id="Layer_1" xmlns="http://www.w3.org/2000/svg" xmlns:xlink="http://www.w3.org/1999/xlink" x="0px" y="0px"
	 viewBox="0 0 24 24" style="enable-background:new 0 0 24 24;" xml:space="preserve">
<style type="text/css">
	.st0{fill:#EDE1B9;stroke:#000000;stroke-miterlimit:10;}
</style>
<path class="st0" d="M19.2,13l-6.8,2.9C12.3,16,12.1,16,12,16H4c-1.1,0-2-0.9-2-2V8c0.1-1.6,1-3,2.5-3.7l5.2-2.2C9.7,2,9.9,2,10,2h2
	c1.7,0,3,1.3,3,3v4h4c1.7,0,3,1.3,3,3c0,0.6-0.4,1-1,1H19.2z"/>
<path class="st0" d="M13,19v2c0,0.6-0.4,1-1,1H3c-0.6,0-1-0.4-1-1v-2c0-0.6,0.4-1,1-1h9C12.6,18,13,18.4,13,19z"/>
</svg>
